<svg width="322" height="322" viewBox="0 0 322 322" fill="none" xmlns="http://www.w3.org/2000/svg">
<g filter="url(#filter0_f)">
<path d="M162.393 11.5662C77.0528 11.5662 7.87122 79.2133 7.87122 162.66C7.87122 246.107 77.0528 313.754 162.393 313.754C247.733 313.754 316.914 246.107 316.914 162.66C316.914 79.2133 247.733 11.5662 162.393 11.5662Z" fill="black"/>
</g>
<g filter="url(#filter1_f)">
<path d="M144.26 113.919C128.766 115.788 114.394 118.17 101.146 121.064C98.3573 121.848 96.1879 122.24 94.6385 122.24C92.8566 122.24 91.3458 121.607 90.1063 120.341C89.3315 119.617 88.9442 118.773 88.9442 117.808C88.9442 115.215 91.3458 113.316 96.1491 112.11C109.01 109.095 124.156 106.321 141.587 103.789C163.435 100.714 184.43 99.176 204.573 99.176C211.391 99.176 215.962 99.5074 218.286 100.17C220.455 100.773 221.54 101.919 221.54 103.607C221.54 106.441 218.867 108.099 213.521 108.582C208.873 108.943 201.862 109.215 192.487 109.396C173.816 109.878 161.033 110.782 154.138 112.109C156.075 112.712 157.043 113.647 157.043 114.913C157.043 116.239 155.804 118.32 153.324 121.154C138.605 137.917 124.543 156.94 111.14 178.226C100.914 194.385 93.4376 208.736 88.7117 221.278C87.6271 225.077 85.7677 226.977 83.1336 226.977C80.7319 226.977 78.7177 226.012 77.0907 224.082C76.0061 222.816 75.4637 221.489 75.4637 220.102C75.4637 214.555 82.2427 201.048 95.8005 179.582C104.478 165.774 112.496 154.137 119.856 144.67C122.8 140.811 129.889 131.857 141.122 117.807L144.26 113.919Z" fill="#FF0000"/>
<path d="M247.222 101.529C248.462 101.529 249.663 102.042 250.825 103.068C251.832 103.972 252.336 104.967 252.336 106.052C252.336 107.56 251.29 109.61 249.198 112.203C248.191 113.469 244.395 117.66 237.809 124.775C206.975 157.818 187.142 187.635 178.31 214.227C177.303 218.508 175.211 220.648 172.034 220.648C170.33 220.648 168.819 220.015 167.502 218.749C166.263 217.603 165.643 216.307 165.643 214.86C165.643 211.845 167.502 206.268 171.221 198.127C179.743 179.314 195.005 156.823 217.008 130.654C225.995 119.921 233.316 111.871 238.972 106.505C242.613 103.188 245.363 101.53 247.223 101.53L247.222 101.529Z" fill="#FF0000"/>
</g>
<defs>
<filter id="filter0_f" x="7.87121" y="11.5662" width="309.043" height="302.188" filterUnits="userSpaceOnUse" color-interpolation-filters="sRGB">
<feFlood flood-opacity="0" result="BackgroundImageFix"/>
<feBlend mode="normal" in="SourceGraphic" in2="BackgroundImageFix" result="shape"/>
<feGaussianBlur stdDeviation="2.00889e-06" result="effect1_foregroundBlur"/>
</filter>
<filter id="filter1_f" x="75.4637" y="99.176" width="176.872" height="127.801" filterUnits="userSpaceOnUse" color-interpolation-filters="sRGB">
<feFlood flood-opacity="0" result="BackgroundImageFix"/>
<feBlend mode="normal" in="SourceGraphic" in2="BackgroundImageFix" result="shape"/>
<feGaussianBlur stdDeviation="7.90195e-06" result="effect1_foregroundBlur"/>
</filter>
</defs>
</svg>
